<?xml version="1.0" encoding="UTF-8" standalone="no"?>
<!DOCTYPE svg PUBLIC "-//W3C//DTD SVG 1.1//EN" "http://www.w3.org/Graphics/SVG/1.1/DTD/svg11.dtd">
<svg width="100%" height="100%" viewBox="0 0 513 513" version="1.1" xmlns="http://www.w3.org/2000/svg" xmlns:xlink="http://www.w3.org/1999/xlink" xml:space="preserve" xmlns:serif="http://www.serif.com/" style="fill-rule:evenodd;clip-rule:evenodd;stroke-linejoin:round;stroke-miterlimit:2;">
    <g transform="matrix(1,0,0,1,-1119,-3768)">
        <g id="icon-cockpit" transform="matrix(1.31754,0,0,4.19661,107.206,1926.72)">
            <rect x="768.592" y="438.883" width="388.603" height="122.003" style="fill:none;"/>
            <g id="Icon-Cockpit" serif:id="Icon Cockpit" transform="matrix(1.024,0,0,1.024,-23.1094,-11.9972)">
                <g transform="matrix(2.19542,0,0,1.74303,196.688,-735.087)">
                    <g id="Polygon">
                        <path id="Polygon1" serif:id="Polygon" d="M342.249,675.883C346.427,674.929 351.575,674.929 355.754,675.883C369.976,679.13 402.876,686.641 417.099,689.888C421.277,690.842 423.851,692.605 423.851,694.513L423.851,722.524C423.851,724.432 421.277,726.195 417.099,727.149C402.876,730.396 369.976,737.907 355.754,741.154C351.575,742.108 346.427,742.108 342.249,741.154C328.026,737.907 295.127,730.396 280.904,727.149C276.726,726.195 274.152,724.432 274.152,722.524L274.152,694.513C274.152,692.605 276.726,690.842 280.904,689.888C295.127,686.641 328.026,679.13 342.249,675.883Z" style="fill:none;"/>
                        <clipPath id="_clip1">
                            <path id="Polygon2" serif:id="Polygon" d="M342.249,675.883C346.427,674.929 351.575,674.929 355.754,675.883C369.976,679.13 402.876,686.641 417.099,689.888C421.277,690.842 423.851,692.605 423.851,694.513L423.851,722.524C423.851,724.432 421.277,726.195 417.099,727.149C402.876,730.396 369.976,737.907 355.754,741.154C351.575,742.108 346.427,742.108 342.249,741.154C328.026,737.907 295.127,730.396 280.904,727.149C276.726,726.195 274.152,724.432 274.152,722.524L274.152,694.513C274.152,692.605 276.726,690.842 280.904,689.888C295.127,686.641 328.026,679.13 342.249,675.883Z"/>
                        </clipPath>
                        <g clip-path="url(#_clip1)">
                            <path id="HG" d="M342.249,675.883C346.427,674.929 351.575,674.929 355.754,675.883C369.976,679.13 402.876,686.641 417.099,689.888C421.277,690.842 423.851,692.605 423.851,694.513L423.851,722.524C423.851,724.432 421.277,726.195 417.099,727.149C402.876,730.396 369.976,737.907 355.754,741.154C351.575,742.108 346.427,742.108 342.249,741.154C328.026,737.907 295.127,730.396 280.904,727.149C276.726,726.195 274.152,724.432 274.152,722.524L274.152,694.513C274.152,692.605 276.726,690.842 280.904,689.888C295.127,686.641 328.026,679.13 342.249,675.883Z" style="fill:rgb(39,39,39);"/>
                            <g id="seite-rechts" serif:id="seite rechts" transform="matrix(0.345715,0,0,0.136709,223.852,622.939)">
                                <path d="M362,876L578.5,751L578.5,501L362,626L362,876Z" style="fill:rgb(36,36,36);"/>
                            </g>
                            <g id="seite-hinten" serif:id="seite hinten" transform="matrix(0.345715,0,0,0.136709,223.852,622.939)">
                                <path d="M362,376L578.5,501L578.5,751L362,626L362,376Z" style="fill:rgb(39,39,39);"/>
                            </g>
                            <g id="seite-links" serif:id="seite links" transform="matrix(0.345715,0,0,0.136709,223.852,622.939)">
                                <path d="M362,376L145.5,501L145.5,751L362,626L362,376Z" style="fill:rgb(34,34,34);"/>
                            </g>
                            <g id="seite-vorne" serif:id="seite vorne" transform="matrix(0.345715,0,0,0.136709,223.852,622.939)">
                                <path d="M145.5,501L145.5,751L362,876L362,626L145.5,501Z" style="fill:rgb(30,30,30);"/>
                            </g>
                        </g>
                    </g>
                </g>
                <g transform="matrix(0.277808,0,0,0.0872189,-149.943,387.795)">
                    <g id="Management">
                        <path id="Management1" serif:id="Management" d="M4107.96,1510.71L4107.96,1530.75C4107.96,1566.05 4079.26,1594.75 4043.96,1594.75L3659.96,1594.75C3624.66,1594.75 3595.96,1566.05 3595.96,1530.75L3595.96,1402.75L3787.96,1402.75L3787.96,1434.75C3787.96,1452.45 3802.26,1466.75 3819.96,1466.75L3883.96,1466.75C3901.38,1466.75 3915.51,1452.89 3915.92,1435.58C3967.03,1477.05 4033.86,1504.5 4107.96,1510.71ZM4415.02,1392.09C4416.35,1395.69 4415.23,1399.71 4412.37,1402.28L4394.43,1418.61C4394.88,1422.05 4395.13,1425.58 4395.13,1429.14C4395.13,1432.7 4394.88,1436.23 4394.43,1439.67L4412.37,1456C4415.23,1458.56 4416.35,1462.58 4415.02,1466.19C4413.2,1471.12 4411,1475.85 4408.48,1480.4L4406.53,1483.76C4403.79,1488.32 4400.73,1492.63 4397.37,1496.69C4394.92,1499.68 4390.86,1500.67 4387.22,1499.51L4364.13,1492.18C4358.58,1496.44 4352.44,1500.01 4345.9,1502.7L4340.71,1526.37C4339.89,1530.14 4336.98,1533.12 4333.17,1533.74C4327.45,1534.7 4321.57,1535.19 4315.56,1535.19C4309.55,1535.19 4303.66,1534.7 4297.94,1533.74C4294.13,1533.12 4291.23,1530.14 4290.4,1526.37L4285.22,1502.7C4278.67,1500.01 4272.54,1496.44 4266.98,1492.18L4243.94,1499.55C4240.3,1500.71 4236.23,1499.68 4233.79,1496.73C4230.43,1492.67 4227.36,1488.36 4224.63,1483.8L4222.68,1480.45C4220.15,1475.89 4217.96,1471.16 4216.13,1466.23C4214.81,1462.63 4215.93,1458.61 4218.78,1456.04L4236.73,1439.71C4236.27,1436.23 4236.03,1432.7 4236.03,1429.14C4236.03,1425.58 4236.27,1422.05 4236.73,1418.61L4218.78,1402.28C4215.93,1399.71 4214.81,1395.69 4216.13,1392.09C4217.96,1387.16 4220.15,1382.43 4222.68,1377.87L4224.63,1374.52C4227.36,1369.96 4230.43,1365.65 4233.79,1361.59C4236.23,1358.6 4240.3,1357.61 4243.94,1358.77L4267.03,1366.1C4272.58,1361.83 4278.71,1358.27 4285.26,1355.58L4290.44,1331.91C4291.27,1328.14 4294.17,1325.15 4297.98,1324.53C4303.7,1323.54 4309.59,1323.04 4315.6,1323.04C4321.61,1323.04 4327.49,1323.54 4333.21,1324.49C4337.03,1325.11 4339.93,1328.1 4340.76,1331.87L4345.94,1355.53C4352.48,1358.23 4358.62,1361.79 4364.17,1366.06L4387.26,1358.73C4390.9,1357.57 4394.97,1358.6 4397.41,1361.54C4400.77,1365.61 4403.83,1369.91 4406.57,1374.47L4408.52,1377.83C4411.05,1382.39 4413.24,1387.11 4415.07,1392.05L4415.02,1392.09ZM4203.22,1463.6L4152.26,1463.55C4143.96,1477.85 4128.46,1487.55 4110.66,1487.55L4078.66,1487.55C4052.16,1487.55 4030.66,1466.05 4030.66,1439.55C4030.66,1413.05 4052.16,1391.55 4078.66,1391.55L4110.66,1391.55C4128.46,1391.55 4143.96,1401.25 4152.26,1415.55L4202.96,1415.6C4201.66,1423.14 4201,1430.9 4201,1438.83C4201,1447.29 4201.75,1455.57 4203.22,1463.6ZM4315.6,1462.29C4333.79,1462.29 4348.76,1447.33 4348.76,1429.14C4348.76,1410.95 4333.79,1395.98 4315.6,1395.98C4297.41,1395.98 4282.44,1410.95 4282.44,1429.14C4282.44,1447.33 4297.41,1462.29 4315.6,1462.29ZM3846.09,1114.75C3837.55,1130.03 3830.59,1146.08 3825.43,1162.75L3779.96,1162.75C3775.56,1162.75 3771.96,1166.35 3771.96,1170.75L3771.96,1210.75L3815.71,1210.75C3814.93,1218.47 3814.55,1226.26 3814.55,1234.13C3814.55,1283.79 3829.83,1330.41 3856.61,1370.75L3595.96,1370.75L3595.96,1274.75C3595.96,1239.45 3624.66,1210.75 3659.96,1210.75L3723.96,1210.75L3723.96,1170.75C3723.96,1139.85 3749.06,1114.75 3779.96,1114.75L3846.09,1114.75ZM3982.66,1183.55L3998.66,1183.55C4016.36,1183.55 4030.66,1197.85 4030.66,1215.55L4030.66,1327.55C4030.66,1345.25 4016.36,1359.55 3998.66,1359.55L3982.66,1359.55C3947.36,1359.55 3918.66,1330.85 3918.66,1295.55L3918.66,1247.55C3918.66,1212.25 3947.36,1183.55 3982.66,1183.55ZM4228.68,1355.65C4221.81,1358.18 4214.39,1359.55 4206.66,1359.55L4190.66,1359.55C4172.96,1359.55 4158.66,1345.25 4158.66,1327.55L4158.66,1215.55C4158.66,1197.85 4172.96,1183.55 4190.66,1183.55L4206.66,1183.55C4241.96,1183.55 4270.66,1212.25 4270.66,1247.55L4270.66,1295.55C4270.66,1305.52 4268.38,1314.95 4264.3,1323.36C4250.59,1331.7 4238.5,1342.67 4228.68,1355.65ZM4302.66,1308.14L4302.66,1231.55C4302.66,1116.65 4209.56,1023.55 4094.66,1023.55C3979.76,1023.55 3886.66,1116.65 3886.66,1231.55L3886.66,1271.55C3886.66,1284.85 3875.96,1295.55 3862.66,1295.55C3849.36,1295.55 3838.66,1284.85 3838.66,1271.55L3838.66,1231.55C3838.66,1090.15 3953.26,975.554 4094.66,975.554C4236.06,975.554 4350.66,1090.15 4350.66,1231.55L4350.66,1307.94C4343.06,1306.39 4335.2,1305.6 4327.18,1305.6C4318.78,1305.6 4310.58,1306.47 4302.66,1308.14Z" style="fill:rgb(14,165,233);"/>
                    </g>
                </g>
            </g>
        </g>
    </g>
</svg>
